# xmcd
# 
# Track frame offsets:
#     150
#     11565
#     35116
#     51322
#     83194
#     101419
#     123647
#     140015
#     162931
#     180717
#     196239
# 
# Disc length: 2963
# 
# Revision: 7
# Processed by: cddbd v1.5.2PL0 Copyright (c) Steve Scherf et al.
# Submitted via: fre:ac v1.0.31
# 
DISCID=980b910b
DTITLE=Beth Hart And Joe Bonamassa - Seesaw
DYEAR=2013
DGENRE=Blues
TTITLE0=Them There Eyes
TTITLE1=Close To My Fire
TTITLE2=Nutbush City Limits
TTITLE3=I Love You More Than You'll Ever Know
TTITLE4=Can't Let You Go
TTITLE5=Miss Lady
TTITLE6=If I Tell You I Love You
TTITLE7=Rhymes
TTITLE8=A Sunday Kind Of Love
TTITLE9=Seesaw
TTITLE10=Strange Fruit
EXTD=YEAR: 2013
EXTT0=
EXTT1=
EXTT2=
EXTT3=
EXTT4=
EXTT5=
EXTT6=
EXTT7=
EXTT8=
EXTT9=
EXTT10=
PLAYORDER=
